# xmcd
#
# Track frame offsets:
#	150
#	11981
#	22537
#	33902
#	43492
#	55367
#	66063
#	72787
#	82964
#	97378
#	104766
#	115456
#	126964
#	136226
#	146869
#	159451
#	165725
#	176862
#
# Disc length: 2588 seconds
#
# Revision: 0
# Processed by: cddbd v1.5.2PL0 Copyright (c) Steve Scherf et al.
# Submitted via: EasyCDDAExtractor 16.0.6.1
#
DISCID=0b0a1a12
DTITLE=Συλλογικός δίσκος - Λιανοτράγουδα Τραγ. γλυκιάς πατρίδας-1973
DYEAR=1974
DGENRE=Έντεχνη λαϊκή
TTITLE0=Φαραντούρη Μ-ΠανδήςΠ-ΜάνουΑ-ΚωστούληςΑχ. - Η αναβάφτιση [Μ. Θεοδωράκη-
TTITLE0=Γ. Ρίτσου]
TTITLE1=Φαραντούρη Μ-ΠανδήςΠ-ΜάνουΑ-ΚωστούληςΑχ. - Κουβέντα μ' ένα λουλούδι [Μ
TTITLE1=Θεοδωράκη-Γ. Ρίτσου]
TTITLE2=Φαραντούρη Μ-ΠανδήςΠ-ΜάνουΑ-ΚωστούληςΑχ. - Καρτέρεμα [Μ. Θεοδωράκη-Γ. 
TTITLE2=Ρίτσου]
TTITLE3=Φαραντούρη Μ-ΠανδήςΠ-ΜάνουΑ-ΚωστούληςΑχ. - Λαός [Μ. Θεοδωράκη-Γ. Ρίτσο
TTITLE3=υ]
TTITLE4=Φαραντούρη Μ-ΠανδήςΠ-ΜάνουΑ-ΚωστούληςΑχ. - Μνημόσυνο [Μ. Θεοδωράκη-Γ. 
TTITLE4=Ρίτσου]
TTITLE5=Φαραντούρη Μ-ΠανδήςΠ-ΜάνουΑ-ΚωστούληςΑχ. - Αυγή [Μ. Θεοδωράκη-Γ. Ρίτσο
TTITLE5=υ]
TTITLE6=Φαραντούρη Μ-ΠανδήςΠ-ΜάνουΑ-ΚωστούληςΑχ. - Δε φτάνει [Μ. Θεοδωράκη-Γ. 
TTITLE6=Ρίτσου]
TTITLE7=Φαραντούρη Μ-ΠανδήςΠ-ΜάνουΑ-ΚωστούληςΑχ. - Πράσινη μέρα [Μ. Θεοδωράκη-
TTITLE7=Γ. Ρίτσου]
TTITLE8=Φαραντούρη Μ-ΠανδήςΠ-ΜάνουΑ-ΚωστούληςΑχ. - Συλλειτουργικό [Μ. Θεοδωράκ
TTITLE8=η-Γ. Ρίτσου]
TTITLE9=Φαραντούρη Μ-ΠανδήςΠ-ΜάνουΑ-ΚωστούληςΑχ. - Το νερό [Μ. Θεοδωράκη-Γ. Ρί
TTITLE9=τσου]
TTITLE10=Φαραντούρη Μ-ΠανδήςΠ-ΜάνουΑ-ΚωστούληςΑχ. - Κυκλάμινο [Μ. Θεοδωράκη-Γ.
TTITLE10=Ρίτσου]
TTITLE11=Φαραντούρη Μ-ΠανδήςΠ-ΜάνουΑ-ΚωστούληςΑχ. - Λιγνά κορίτσια [Μ. Θεοδωρά
TTITLE11=κη-Γ. Ρίτσου]
TTITLE12=Φαραντούρη Μ-ΠανδήςΠ-ΜάνουΑ-ΚωστούληςΑχ. - Τ' άσπρο ξωκκλήσι [Μ. Θεοδ
TTITLE12=ωράκη-Γ. Ρίτσου]
TTITLE13=Φαραντούρη Μ-ΠανδήςΠ-ΜάνουΑ-ΚωστούληςΑχ. - Επιτύμβιο [Μ. Θεοδωράκη-Γ.
TTITLE13=Ρίτσου]
TTITLE14=Φαραντούρη Μ-ΠανδήςΠ-ΜάνουΑ-ΚωστούληςΑχ. - Εδώ το φως [Μ. Θεοδωράκη-Γ
TTITLE14=Ρίτσου]
TTITLE15=Φαραντούρη Μ-ΠανδήςΠ-ΜάνουΑ-ΚωστούληςΑχ. - Το χτίσιμο [Μ. Θεοδωράκη-Γ
TTITLE15=Ρίτσου]
TTITLE16=Θεοδωράκης Μίκης - Ο ταμένος [Μ. Θεοδωράκη-Γ. Ρίτσου]
TTITLE17=Θεοδωράκης Μ.-χορωδία υπολ. - Τη Ρωμιοσύνη μη την κλαις [Μ. Θεοδωράκη
TTITLE17=Γ. Ρίτσου]
EXTD=
EXTT0=
EXTT1=
EXTT2=
EXTT3=
EXTT4=
EXTT5=
EXTT6=
EXTT7=
EXTT8=
EXTT9=
EXTT10=
EXTT11=
EXTT12=
EXTT13=
EXTT14=
EXTT15=
EXTT16=
EXTT17=
PLAYORDER=
